<svg id="diseñoweb-icon" xmlns="http://www.w3.org/2000/svg" width="147.172" height="147.172" viewBox="0 0 147.172 147.172">
  <path id="Path_6" data-name="Path 6" d="M308.874,346a2.874,2.874,0,1,0,2.874,2.874A2.876,2.876,0,0,0,308.874,346Zm0,0" transform="translate(-218.042 -246.544)" fill="#02e86d"/>
  <path id="Path_7" data-name="Path 7" d="M132.8,0H14.372A14.388,14.388,0,0,0,0,14.372v87.958A14.388,14.388,0,0,0,14.372,116.7H59.214v13.222H56.339A14.376,14.376,0,0,0,41.967,144.3a2.874,2.874,0,0,0,2.874,2.874h57.489a2.874,2.874,0,0,0,2.874-2.874,14.388,14.388,0,0,0-14.372-14.372H87.958V116.7H132.8a14.388,14.388,0,0,0,14.372-14.372V14.372A14.388,14.388,0,0,0,132.8,0ZM14.372,5.749H132.8a8.633,8.633,0,0,1,8.623,8.623V87.958H128.2V21.846a2.874,2.874,0,0,0-2.874-2.874h-23a2.874,2.874,0,0,0-2.874,2.874V87.958H85.068c-.03-2.973-.108-5.9-.231-8.747a184.89,184.89,0,0,0-2.246-23,14.374,14.374,0,0,0,3.924-18.748L76.553,20.21a2.874,2.874,0,0,0-4.979,0L61.607,37.467A14.371,14.371,0,0,0,64.77,55.606a182.468,182.468,0,0,0-2.423,23.6c-.129,2.873-.211,5.806-.243,8.752H47.716V44.842a2.859,2.859,0,0,0-.284-1.241c-.008-.015-.012-.03-.019-.045l-11.5-23a2.875,2.875,0,0,0-5.143,0l-11.5,23c-.007.015-.011.03-.018.045a2.857,2.857,0,0,0-.285,1.241V87.958H5.749V14.372a8.633,8.633,0,0,1,8.623-8.623Zm90.833,82.209V24.72h17.247v5.749h-2.874a2.874,2.874,0,1,0,0,5.749h2.874v8.623h-2.874a2.874,2.874,0,1,0,0,5.749h2.874v8.623h-2.874a2.874,2.874,0,1,0,0,5.749h2.874v11.5h-2.874a2.874,2.874,0,1,0,0,5.749h2.874v5.749ZM74.063,59.015a14.393,14.393,0,0,0,3.1-.345c.533,3.419,1.317,9.469,1.781,17.79h-10.7c.486-8.316,1.307-14.46,1.874-17.995a14.39,14.39,0,0,0,3.943.549Zm0-5.749A8.634,8.634,0,0,1,66.586,40.34L74.063,27.4l7.472,12.943a8.628,8.628,0,0,1-7.472,12.927ZM67.982,82.209H79.2c.061,1.889.1,3.81.122,5.749H67.853c.021-1.927.065-3.848.129-5.749ZM36.218,87.958V47.716h5.749V87.958Zm-11.5,0V47.716h5.749V87.958ZM26.5,41.967l6.847-13.694,6.847,13.694Zm72.466,99.456H48.205a8.64,8.64,0,0,1,8.134-5.749H90.833a8.637,8.637,0,0,1,8.13,5.749Zm-16.754-11.5H64.962V116.7H82.209Zm50.59-18.971H14.372a8.633,8.633,0,0,1-8.623-8.623V93.707H141.423v8.623A8.633,8.633,0,0,1,132.8,110.954Zm0,0" fill="#02e86d"/>
  <path id="Path_8" data-name="Path 8" d="M226.121,346H208.874a2.874,2.874,0,1,0,0,5.749h17.247a2.874,2.874,0,0,0,0-5.749Zm0,0" transform="translate(-146.786 -246.544)" fill="#02e86d"/>
</svg>
