<svg xmlns="http://www.w3.org/2000/svg" width="161.587" height="163.399" viewBox="0 0 161.587 163.399">
  <path id="pencil" d="M159.162,20.494A3.319,3.319,0,0,0,156,20.333L130.05,32.559a28.2,28.2,0,0,0-16.093,23.273l-.669,8.291L99.841,86.46V76.923c0-.031-.016-.057-.016-.091a3.315,3.315,0,0,0-.158-.967L93.409,57.094l12.776-25.542a3.35,3.35,0,0,0-.335-3.506L85.764,1.264a3.468,3.468,0,0,0-5.356,0L60.321,28.046A3.351,3.351,0,0,0,60,31.551L72.779,57.094,66.522,75.864a3.315,3.315,0,0,0-.158.967V90.283L45.507,58.627c-.026-.036-.066-.057-.09-.09a3.388,3.388,0,0,0-.719-.731c-.064-.046-.121-.1-.188-.143s-.077-.067-.12-.091l-12.273-7.1-5.095-7.733L19.657,31.561a3.348,3.348,0,0,0-3.9-1.315L2.728,34.815A3.347,3.347,0,0,0,.695,39.09a3.264,3.264,0,0,0,.36.723l9.209,13.981,5.079,7.729L17.016,75.6a1.228,1.228,0,0,0,.034.133c.015.071.032.142.054.211a3.314,3.314,0,0,0,.4,1c.024.034.024.077.047.111s49.783,75.453,50.024,75.657a16.576,16.576,0,0,0,15.5,10.679,16.96,16.96,0,0,0,4.054-.495A16.633,16.633,0,0,0,97.427,155.3l29.052-48.2,15.471-25.666,7.03-4.449a28.4,28.4,0,0,0,9.059-9.264,28.114,28.114,0,0,0,4.017-15.834l-1.305-28.663a3.348,3.348,0,0,0-1.589-2.733ZM134.915,80.149l-5.18,8.6-17.2-10.377,5.186-8.6ZM73.059,130.877V80.27H93.145V97.565Zm5.762-70.693h8.563l4.462,13.39H74.358ZM83.1,36.75A3.347,3.347,0,1,1,86.451,33.4,3.347,3.347,0,0,1,83.1,36.75Zm0-27.9L99.269,30.407,87.729,53.488H86.449V42.83a10.042,10.042,0,1,0-6.694,0V53.488H78.476L66.936,30.407Zm-46.756,51.8-.985.649L23.032,69.427,21.9,59.94a3.343,3.343,0,0,0-.53-1.444l-3.681-5.59,5.59-3.683,3.683,5.59a3.364,3.364,0,0,0,1.118,1.055ZM15.506,37.419l4.084,6.2L14,47.3l-5.021-7.6ZM33.373,70.626l8.37-5.528,24.621,37.35v36.513L24.987,76.156ZM91.7,151.819a10.043,10.043,0,0,1-17.258-10.277c.021-.034.041-.066.061-.1L99.783,99.519h.057v-.09l9.233-15.316,8.6,5.2,8.613,5.175Zm60.619-87.567a21.625,21.625,0,0,1-6.905,7.056l-5.946,3.766-9.708-5.844-9.709-5.845.552-7.03a21.506,21.506,0,0,1,12.269-17.743L154.3,28.524l.426,9.33a3.314,3.314,0,0,0-1,.044l-8.108,2.01a20.378,20.378,0,0,0-15.064,15.4,3.346,3.346,0,0,0,2.534,4,3.226,3.226,0,0,0,.733.085,3.35,3.35,0,0,0,3.264-2.618,13.726,13.726,0,0,1,10.134-10.358l7.82-1.939.352,7.7a21.46,21.46,0,0,1-3.064,12.079Zm0,0" transform="translate(-0.5 -0.001)" fill="#7d009b"/>
</svg>
