<?xml version="1.0" encoding="iso-8859-1"?>
<!-- Generator: Adobe Illustrator 19.0.0, SVG Export Plug-In . SVG Version: 6.00 Build 0)  -->
<svg version="1.1" id="Layer_1" xmlns="http://www.w3.org/2000/svg" xmlns:xlink="http://www.w3.org/1999/xlink" x="0px" y="0px"
	 viewBox="0 0 512 512" style="enable-background:new 0 0 512 512;" xml:space="preserve">
<path style="fill:#2D2D2D;" d="M0,355.2v-324c0.104-5.704,4.696-10.296,10.4-10.4h491.2c5.704,0.104,10.296,4.696,10.4,10.4v324H0z"
	/>
<g>
	<path style="fill:#BCBCBC;" d="M512,355.2v41.6c-0.104,5.704-4.696,10.296-10.4,10.4H10.4c-5.704-0.104-10.296-4.696-10.4-10.4
		v-41.6H512z"/>
	<rect x="146.4" y="480.8" style="fill:#BCBCBC;" width="219.2" height="10.4"/>
</g>
<polygon style="fill:#2D2D2D;" points="328.8,480.8 183.2,480.8 193.6,407.2 318.4,407.2 "/>
<rect x="20.8" y="41.6" style="fill:#FFFFFF;" width="470.4" height="292.8"/>
<polygon points="318.4,407.2 193.6,407.2 187.792,448.28 320.272,420.424 "/>
<rect x="55.39" y="72" width="147.1" height="147.1"/>
<rect x="140.3" y="156.9" style="fill:#E21B1B;" width="147.1" height="147.1"/>
<rect x="339.4" y="62.712" style="fill:#BCBCBC;" width="117.37" height="250.58"/>
<rect x="384.87" y="62.712" style="fill:#666666;" width="71.904" height="14.14"/>
<rect x="350.66" y="88.55" style="fill:#2D2D2D;" width="13.328" height="13.328"/>
<g style="opacity:0.2;">
	<rect x="346.57" y="86.23" style="fill:#2D2D2D;" width="103.05" height="17.96"/>
</g>
<rect x="371.76" y="88.55" style="fill:#FFFFFF;" width="13.328" height="13.328"/>
<rect x="368.69" y="88.55" style="fill:#E21B1B;" width="3.072" height="13.328"/>
<g>
	<circle style="fill:#666666;" cx="431.01" cy="95.22" r="3.16"/>
	<rect x="437.11" y="92.06" style="fill:#666666;" width="6.328" height="6.328"/>
</g>
<rect x="350.66" y="112.74" style="fill:#2D2D2D;" width="13.328" height="13.328"/>
<g style="opacity:0.2;">
	<rect x="346.57" y="110.42" style="fill:#2D2D2D;" width="103.05" height="17.96"/>
</g>
<rect x="371.76" y="112.74" style="fill:#FFFFFF;" width="13.328" height="13.328"/>
<rect x="368.69" y="112.74" style="fill:#E21B1B;" width="3.072" height="13.328"/>
<g>
	<circle style="fill:#666666;" cx="431.01" cy="119.4" r="3.16"/>
	<rect x="437.11" y="116.24" style="fill:#666666;" width="6.328" height="6.328"/>
</g>
<rect x="350.66" y="136.93" style="fill:#2D2D2D;" width="13.328" height="13.328"/>
<g style="opacity:0.2;">
	<rect x="346.57" y="134.61" style="fill:#2D2D2D;" width="103.05" height="17.96"/>
</g>
<rect x="371.76" y="136.93" style="fill:#FFFFFF;" width="13.328" height="13.328"/>
<rect x="368.69" y="136.93" style="fill:#E21B1B;" width="3.072" height="13.328"/>
<g>
	<circle style="fill:#666666;" cx="431.01" cy="143.59" r="3.16"/>
	<rect x="437.11" y="140.42" style="fill:#666666;" width="6.328" height="6.328"/>
</g>
<rect x="350.66" y="161.11" style="fill:#2D2D2D;" width="13.328" height="13.328"/>
<g style="opacity:0.2;">
	<rect x="346.57" y="158.79" style="fill:#2D2D2D;" width="103.05" height="17.96"/>
</g>
<rect x="371.76" y="161.11" style="fill:#FFFFFF;" width="13.328" height="13.328"/>
<rect x="368.69" y="161.11" style="fill:#E21B1B;" width="3.072" height="13.328"/>
<g>
	<circle style="fill:#666666;" cx="431.01" cy="167.78" r="3.16"/>
	<rect x="437.11" y="164.62" style="fill:#666666;" width="6.328" height="6.328"/>
</g>
<rect x="350.66" y="185.3" style="fill:#2D2D2D;" width="13.328" height="13.328"/>
<g style="opacity:0.2;">
	<rect x="346.57" y="182.98" style="fill:#2D2D2D;" width="103.05" height="17.96"/>
</g>
<rect x="371.76" y="185.3" style="fill:#FFFFFF;" width="13.328" height="13.328"/>
<rect x="368.69" y="185.3" style="fill:#E21B1B;" width="3.072" height="13.328"/>
<g>
	<circle style="fill:#666666;" cx="431.01" cy="191.96" r="3.16"/>
	<rect x="437.11" y="188.8" style="fill:#666666;" width="6.328" height="6.328"/>
</g>
<rect x="350.66" y="209.49" style="fill:#2D2D2D;" width="13.328" height="13.328"/>
<g style="opacity:0.2;">
	<rect x="346.57" y="207.17" style="fill:#2D2D2D;" width="103.05" height="17.96"/>
</g>
<rect x="371.76" y="209.49" style="fill:#FFFFFF;" width="13.328" height="13.328"/>
<rect x="368.69" y="209.49" style="fill:#E21B1B;" width="3.072" height="13.328"/>
<g>
	<circle style="fill:#666666;" cx="431.01" cy="216.14" r="3.16"/>
	<rect x="437.11" y="212.98" style="fill:#666666;" width="6.328" height="6.328"/>
</g>
<rect x="350.66" y="233.67" style="fill:#2D2D2D;" width="13.328" height="13.328"/>
<g style="opacity:0.2;">
	<rect x="346.57" y="231.35" style="fill:#2D2D2D;" width="103.05" height="17.96"/>
</g>
<rect x="371.76" y="233.67" style="fill:#FFFFFF;" width="13.328" height="13.328"/>
<rect x="368.69" y="233.67" style="fill:#E21B1B;" width="3.072" height="13.328"/>
<g>
	<circle style="fill:#666666;" cx="431.01" cy="240.34" r="3.16"/>
	<rect x="437.11" y="237.17" style="fill:#666666;" width="6.328" height="6.328"/>
</g>
<rect x="350.66" y="257.86" style="fill:#2D2D2D;" width="13.328" height="13.328"/>
<g style="opacity:0.2;">
	<rect x="346.57" y="255.54" style="fill:#2D2D2D;" width="103.05" height="17.96"/>
</g>
<rect x="371.76" y="257.86" style="fill:#FFFFFF;" width="13.328" height="13.328"/>
<rect x="368.69" y="257.86" style="fill:#E21B1B;" width="3.072" height="13.328"/>
<g>
	<circle style="fill:#666666;" cx="431.01" cy="264.52" r="3.16"/>
	<rect x="437.11" y="261.36" style="fill:#666666;" width="6.328" height="6.328"/>
</g>
<rect x="350.66" y="282.05" style="fill:#2D2D2D;" width="13.328" height="13.328"/>
<g style="opacity:0.2;">
	<rect x="346.57" y="279.73" style="fill:#2D2D2D;" width="103.05" height="17.96"/>
</g>
<rect x="371.76" y="282.05" style="fill:#FFFFFF;" width="13.328" height="13.328"/>
<rect x="368.69" y="282.05" style="fill:#E21B1B;" width="3.072" height="13.328"/>
<g>
	<circle style="fill:#666666;" cx="431.01" cy="288.7" r="3.16"/>
	<rect x="437.11" y="285.54" style="fill:#666666;" width="6.328" height="6.328"/>
</g>
<g>
</g>
<g>
</g>
<g>
</g>
<g>
</g>
<g>
</g>
<g>
</g>
<g>
</g>
<g>
</g>
<g>
</g>
<g>
</g>
<g>
</g>
<g>
</g>
<g>
</g>
<g>
</g>
<g>
</g>
</svg>
