<?xml version="1.0" encoding="iso-8859-1"?>
<!-- Generator: Adobe Illustrator 19.0.0, SVG Export Plug-In . SVG Version: 6.00 Build 0)  -->
<svg version="1.1" id="Layer_1" xmlns="http://www.w3.org/2000/svg" xmlns:xlink="http://www.w3.org/1999/xlink" x="0px" y="0px"
	 viewBox="0 0 512 512" style="enable-background:new 0 0 512 512;" xml:space="preserve">
<g>
	<g>
		<path d="M461.639,402.885H344.131c-4.635,0-8.393,3.754-8.393,8.393v33.574c0,4.639,3.758,8.393,8.393,8.393h117.508
			c4.635,0,8.393-3.754,8.393-8.393v-33.574C470.033,406.639,466.275,402.885,461.639,402.885z M453.246,436.459H352.525v-16.787
			h100.721V436.459z"/>
	</g>
</g>
<g>
	<g>
		<path d="M377.66,0H67.193c-13.91,0-25.225,11.287-25.225,25.156v461.688c0,13.869,11.316,25.156,25.221,25.156h252.16
			c4.635,0,8.393-3.754,8.393-8.393s-3.758-8.393-8.393-8.393H67.188c-4.652,0-8.434-3.754-8.434-8.369V25.156
			c0-4.615,3.787-8.369,8.439-8.369H377.66c4.652,0,8.439,3.771,8.439,8.41v276.188c0,4.639,3.758,8.393,8.393,8.393
			c4.635,0,8.393-3.754,8.393-8.393V25.197C402.885,11.303,391.57,0,377.66,0z"/>
	</g>
</g>
<g>
	<g>
		<path d="M222.426,394.492c-20.828,0-37.77,16.943-37.77,37.77c0,20.828,16.943,37.771,37.77,37.771
			c20.828,0,37.771-16.943,37.771-37.771C260.197,411.434,243.254,394.492,222.426,394.492z M222.426,453.246
			c-11.57,0-20.984-9.41-20.984-20.984c0-11.574,9.414-20.984,20.984-20.984c11.57,0,20.984,9.41,20.984,20.984
			C243.41,443.836,233.996,453.246,222.426,453.246z"/>
	</g>
</g>
<g>
	<g>
		<path d="M310.541,58.754h-176.23c-23.152,0-41.984,18.787-41.984,41.885v268.672c0,4.639,3.758,8.393,8.393,8.393h243.41
			c4.635,0,8.393-3.754,8.393-8.393V100.639C352.525,77.541,333.693,58.754,310.541,58.754z M335.738,360.918H109.115V100.639
			c0-13.836,11.303-25.098,25.197-25.098h176.23c13.893,0,25.197,11.262,25.197,25.098V360.918z"/>
	</g>
</g>
<g>
	<g>
		<path d="M193.049,100.721h-58.754c-4.635,0-8.393,3.754-8.393,8.393v58.754c0,4.639,3.758,8.393,8.393,8.393h58.754
			c4.635,0,8.393-3.754,8.393-8.393v-58.754C201.443,104.476,197.684,100.721,193.049,100.721z M184.656,159.475h-41.967v-41.967
			h41.967V159.475z"/>
	</g>
</g>
<g>
	<g>
		<path d="M193.049,201.443h-58.754c-4.635,0-8.393,3.754-8.393,8.393v58.754c0,4.639,3.758,8.393,8.393,8.393h58.754
			c4.635,0,8.393-3.754,8.393-8.393v-58.754C201.443,205.197,197.684,201.443,193.049,201.443z M184.656,260.197h-41.967v-41.967
			h41.967V260.197z"/>
	</g>
</g>
<g>
	<g>
		<path d="M310.557,100.721h-58.754c-4.635,0-8.393,3.754-8.393,8.393v58.754c0,4.639,3.758,8.393,8.393,8.393h58.754
			c4.635,0,8.393-3.754,8.393-8.393v-58.754C318.951,104.476,315.193,100.721,310.557,100.721z M302.164,159.475h-41.967v-41.967
			h41.967V159.475z"/>
	</g>
</g>
<g>
	<g>
		<path d="M310.557,201.443h-58.754c-4.635,0-8.393,3.754-8.393,8.393v58.754c0,4.639,3.758,8.393,8.393,8.393h58.754
			c4.635,0,8.393-3.754,8.393-8.393v-58.754C318.951,205.197,315.193,201.443,310.557,201.443z M302.164,260.197h-41.967v-41.967
			h41.967V260.197z"/>
	</g>
</g>
<g>
	<g>
		<rect x="209.836" y="33.574" width="25.18" height="16.787"/>
	</g>
</g>
<g>
</g>
<g>
</g>
<g>
</g>
<g>
</g>
<g>
</g>
<g>
</g>
<g>
</g>
<g>
</g>
<g>
</g>
<g>
</g>
<g>
</g>
<g>
</g>
<g>
</g>
<g>
</g>
<g>
</g>
</svg>
