<svg xmlns="http://www.w3.org/2000/svg" width="147.7" height="133.498" viewBox="0 0 147.7 133.498">
  <g id="ordenador-personal" transform="translate(0 -24.615)">
    <g id="Group_7" data-name="Group 7" transform="translate(0 24.615)">
      <g id="Group_6" data-name="Group 6">
        <path id="Path_11" data-name="Path 11" d="M132.078,24.615H15.622A15.64,15.64,0,0,0,0,40.237v73.85a15.64,15.64,0,0,0,15.622,15.622H53.343L48.8,152.432H34.085a2.84,2.84,0,1,0,0,5.681h79.531a2.84,2.84,0,1,0,0-5.681H98.9l-4.545-22.723h37.721A15.64,15.64,0,0,0,147.7,114.087V40.237A15.64,15.64,0,0,0,132.078,24.615ZM54.592,152.432l4.545-22.723H88.564l4.545,22.723Zm87.428-38.345a9.953,9.953,0,0,1-9.941,9.941H15.622a9.953,9.953,0,0,1-9.941-9.941v-7.1H142.019v7.1Zm0-12.782H5.681V95.625H22.723a2.84,2.84,0,1,0,0-5.681H5.681V40.237A9.953,9.953,0,0,1,15.622,30.3H132.078a9.953,9.953,0,0,1,9.941,9.941v61.069Z" transform="translate(0 -24.615)" fill="#176d8e"/>
      </g>
    </g>
    <g id="Group_9" data-name="Group 9" transform="translate(68.169 109.827)">
      <g id="Group_8" data-name="Group 8">
        <path id="Path_12" data-name="Path 12" d="M241.989,320a5.681,5.681,0,1,0,5.681,5.681A5.687,5.687,0,0,0,241.989,320Z" transform="translate(-236.308 -320)" fill="#176d8e"/>
      </g>
    </g>
    <g id="Group_11" data-name="Group 11" transform="translate(65.141 57.092)">
      <g id="Group_10" data-name="Group 10">
        <path id="Path_13" data-name="Path 13" d="M257.774,159.118l-6.025-6.025,5.021-5.021a2.841,2.841,0,0,0-1.37-4.776l-26.11-6.025a2.841,2.841,0,0,0-3.407,3.407l6.026,26.11a2.841,2.841,0,0,0,4.776,1.37l5.021-5.021,6.025,6.025a2.84,2.84,0,0,0,4.017,0l6.025-6.025A2.841,2.841,0,0,0,257.774,159.118Zm-8.034,4.017-6.025-6.025a2.84,2.84,0,0,0-4.017,0l-3.406,3.406-3.851-16.688,16.688,3.851-3.406,3.406a2.841,2.841,0,0,0,0,4.017l6.025,6.025Z" transform="translate(-225.811 -137.198)" fill="#176d8e"/>
      </g>
    </g>
    <g id="Group_13" data-name="Group 13" transform="translate(54.469 46.42)">
      <g id="Group_12" data-name="Group 12" transform="translate(0 0)">
        <path id="Path_14" data-name="Path 14" d="M196.506,103.873l-2.84-2.84a2.84,2.84,0,1,0-4.017,4.017l2.841,2.84a2.84,2.84,0,1,0,4.017-4.017Z" transform="translate(-188.816 -100.201)" fill="#176d8e"/>
      </g>
    </g>
    <g id="Group_15" data-name="Group 15" transform="translate(49.763 57.782)">
      <g id="Group_14" data-name="Group 14">
        <path id="Path_15" data-name="Path 15" d="M179.361,139.587h-4.017a2.84,2.84,0,0,0,0,5.681h4.017a2.84,2.84,0,1,0,0-5.681Z" transform="translate(-172.504 -139.587)" fill="#176d8e"/>
      </g>
    </g>
    <g id="Group_17" data-name="Group 17" transform="translate(54.469 66.303)">
      <g id="Group_16" data-name="Group 16">
        <path id="Path_16" data-name="Path 16" d="M196.506,169.956a2.84,2.84,0,0,0-4.017,0l-2.84,2.84a2.84,2.84,0,1,0,4.017,4.017l2.84-2.84A2.841,2.841,0,0,0,196.506,169.956Z" transform="translate(-188.817 -169.124)" fill="#176d8e"/>
      </g>
    </g>
    <g id="Group_19" data-name="Group 19" transform="translate(74.352 46.42)">
      <g id="Group_18" data-name="Group 18" transform="translate(0 0)">
        <path id="Path_17" data-name="Path 17" d="M265.43,101.033a2.841,2.841,0,0,0-4.017,0l-2.84,2.84a2.84,2.84,0,1,0,4.017,4.017l2.84-2.84A2.841,2.841,0,0,0,265.43,101.033Z" transform="translate(-257.74 -100.201)" fill="#176d8e"/>
      </g>
    </g>
    <g id="Group_21" data-name="Group 21" transform="translate(65.831 41.714)">
      <g id="Group_20" data-name="Group 20" transform="translate(0 0)">
        <path id="Path_18" data-name="Path 18" d="M231.043,83.888a2.84,2.84,0,0,0-2.84,2.84v4.017a2.84,2.84,0,1,0,5.681,0V86.728A2.84,2.84,0,0,0,231.043,83.888Z" transform="translate(-228.203 -83.888)" fill="#176d8e"/>
      </g>
    </g>
    <g id="Group_23" data-name="Group 23" transform="translate(28.404 89.945)">
      <g id="Group_22" data-name="Group 22">
        <path id="Path_19" data-name="Path 19" d="M104.086,253.366a2.754,2.754,0,0,0-.162-.534,2.871,2.871,0,0,0-.261-.489,2.758,2.758,0,0,0-.784-.784,2.819,2.819,0,0,0-.491-.261,2.67,2.67,0,0,0-.531-.162,2.8,2.8,0,0,0-1.108,0,2.67,2.67,0,0,0-.531.162,2.779,2.779,0,0,0-.491.261,2.758,2.758,0,0,0-.784.784,2.891,2.891,0,0,0-.261.489,2.754,2.754,0,0,0-.162.534,2.728,2.728,0,0,0,0,1.108,2.669,2.669,0,0,0,.162.531,2.778,2.778,0,0,0,.261.491,2.758,2.758,0,0,0,.784.784,2.818,2.818,0,0,0,.491.261,2.881,2.881,0,0,0,.531.165,2.87,2.87,0,0,0,1.108,0,2.881,2.881,0,0,0,.531-.165,2.777,2.777,0,0,0,.491-.261,2.758,2.758,0,0,0,.784-.784,2.817,2.817,0,0,0,.261-.491,2.669,2.669,0,0,0,.162-.531,2.727,2.727,0,0,0,0-1.108Z" transform="translate(-98.462 -251.081)" fill="#176d8e"/>
      </g>
    </g>
  </g>
</svg>
