<svg xmlns="http://www.w3.org/2000/svg" width="131.089" height="119.088" viewBox="0 0 131.089 119.088">
  <g id="programacion-icon" transform="translate(0 -17.951)">
    <g id="Group_5" data-name="Group 5" transform="translate(0 17.951)">
      <g id="Group_4" data-name="Group 4" transform="translate(0 0)">
        <path id="Path_2" data-name="Path 2" d="M123.212,17.951H7.878A7.886,7.886,0,0,0,0,25.829V129.162a7.886,7.886,0,0,0,7.878,7.878H123.212a7.886,7.886,0,0,0,7.876-7.878V25.829A7.886,7.886,0,0,0,123.212,17.951ZM99.46,31.18a2.909,2.909,0,0,1,2.908-2.909h2.909a2.908,2.908,0,0,1,2.908,2.909v3.3a2.909,2.909,0,0,1-2.908,2.909h-2.909a2.909,2.909,0,0,1-2.908-2.909Zm-13.526,0a2.909,2.909,0,0,1,2.909-2.909h2.908A2.909,2.909,0,0,1,94.66,31.18v3.3a2.909,2.909,0,0,1-2.909,2.909H88.843a2.909,2.909,0,0,1-2.909-2.909Zm35.7,96.406H9.453V46.123H121.635v81.463Zm.077-93.109a2.909,2.909,0,0,1-2.908,2.909h-2.909a2.908,2.908,0,0,1-2.909-2.909v-3.3a2.909,2.909,0,0,1,2.909-2.909H118.8a2.908,2.908,0,0,1,2.908,2.909Z" transform="translate(0 -17.951)" fill="#006df0"/>
        <path id="Path_3" data-name="Path 3" d="M79.464,197.616l21.086,9.806a4.1,4.1,0,0,0,5.825-3.717V203.6A4.111,4.111,0,0,0,104,199.881l-13.188-6.128L104,187.625a4.112,4.112,0,0,0,2.372-3.716V183.8a4.092,4.092,0,0,0-4.1-4.095,4.119,4.119,0,0,0-1.725.379l-21.085,9.8a4.113,4.113,0,0,0-2.37,3.716v.293A4.116,4.116,0,0,0,79.464,197.616Z" transform="translate(-51.325 -125.64)" fill="#006df0"/>
        <path id="Path_4" data-name="Path 4" d="M163.688,194.338A4.113,4.113,0,0,0,167,196.02h.106a4.084,4.084,0,0,0,3.9-2.847l13.89-43.039a4.1,4.1,0,0,0-3.9-5.349h-.105a4.086,4.086,0,0,0-3.9,2.846l-13.891,43.042A4.117,4.117,0,0,0,163.688,194.338Z" transform="translate(-108.45 -102.39)" fill="#006df0"/>
        <path id="Path_5" data-name="Path 5" d="M227.49,183.909a4.12,4.12,0,0,0,2.372,3.718l13.188,6.126-13.188,6.127a4.113,4.113,0,0,0-2.372,3.716v.108a4.1,4.1,0,0,0,5.827,3.716l21.085-9.805a4.116,4.116,0,0,0,2.37-3.715v-.293a4.112,4.112,0,0,0-2.371-3.716l-21.085-9.8a4.1,4.1,0,0,0-5.825,3.716v.106h0Z" transform="translate(-151.451 -125.64)" fill="#006df0"/>
      </g>
    </g>
  </g>
</svg>
