<svg xmlns="http://www.w3.org/2000/svg" width="151.455" height="131.033" viewBox="0 0 151.455 131.033">
  <g id="configuracion-de-ordenador" transform="translate(0 -33.425)">
    <path id="Path_20" data-name="Path 20" d="M297.1,153.2A12.99,12.99,0,1,0,284.117,140.2,13.006,13.006,0,0,0,297.1,153.2Z" transform="translate(-197.324 -65.139)" fill="#942121"/>
    <path id="Path_21" data-name="Path 21" d="M28.346,125.764a11.493,11.493,0,0,1-3.206.451,11.518,11.518,0,0,1-8.77-4.037H12.548a2.372,2.372,0,0,1-2.368-2.373V111.85a11.606,11.606,0,0,1,0-11.081V95.142a11.635,11.635,0,0,1,0-11.069v-38.1A2.372,2.372,0,0,1,12.548,43.6h56.01a12.455,12.455,0,0,1,12.573-.836A12.6,12.6,0,0,1,86.3,33.425H12.548A12.564,12.564,0,0,0,0,45.975v73.831a12.564,12.564,0,0,0,12.548,12.55H32.859A11.572,11.572,0,0,1,28.346,125.764Z" transform="translate(0 0)" fill="#942121"/>
    <path id="Path_22" data-name="Path 22" d="M229.366,33.425H203.719a12.574,12.574,0,0,1,5.163,9.346A12.329,12.329,0,0,1,221.4,43.6h7.971a2.373,2.373,0,0,1,2.368,2.373V58.8a12.3,12.3,0,0,1,0,11.527v9.517a12.579,12.579,0,0,1,0,11.469v28.489a2.373,2.373,0,0,1-2.368,2.373H162.883a11.67,11.67,0,0,1-5.745,3.635,11.482,11.482,0,0,1-3.019.4,11.621,11.621,0,0,1-3.206-.449,13.2,13.2,0,0,1-.508,1.5,11.624,11.624,0,0,1-5.919,6.2v6.723a15.911,15.911,0,0,0-14.24,15.774v4.676a3.821,3.821,0,0,0,3.813,3.82h64.259a3.819,3.819,0,0,0,3.811-3.82v-4.676a15.91,15.91,0,0,0-14.238-15.774v-7.833h41.475a12.563,12.563,0,0,0,12.547-12.55V45.975A12.563,12.563,0,0,0,229.366,33.425ZM194.5,155.962v.858H137.877v-.858a8.322,8.322,0,0,1,8.316-8.309h39.991A8.321,8.321,0,0,1,194.5,155.962Z" transform="translate(-90.458)" fill="#942121"/>
    <path id="Path_23" data-name="Path 23" d="M224.611,61.464a4.978,4.978,0,0,0-6.806,1.827l-6.058,10.482a4.979,4.979,0,0,0,1.825,6.808l4.573,2.637c-.06.411-.114.818-.169,1.228a11.224,11.224,0,0,1,2.309,2.764l4.819,8.338a11.585,11.585,0,0,1-2,14.121,11.569,11.569,0,0,1,1.785,2.254l4.261-2.459a28.292,28.292,0,0,0,6.185,3.686v5.138a4.983,4.983,0,0,0,4.987,4.976h12.1a4.982,4.982,0,0,0,4.981-4.976v-5.138a28.161,28.161,0,0,0,6.181-3.686l4.556,2.624a5.007,5.007,0,0,0,2.5.668,5.062,5.062,0,0,0,1.278-.168,4.989,4.989,0,0,0,3.03-2.325L281,99.781a4.981,4.981,0,0,0-1.825-6.809l-4.571-2.641a27.462,27.462,0,0,0,.369-3.554,27.7,27.7,0,0,0-.369-3.558l4.571-2.637a4.923,4.923,0,0,0,2.318-3.023A4.977,4.977,0,0,0,281,73.774L274.951,63.3a4.975,4.975,0,0,0-6.8-1.828l-4.556,2.624a28.139,28.139,0,0,0-6.181-3.684V55.275a4.988,4.988,0,0,0-4.981-4.987h-12.1a4.989,4.989,0,0,0-4.987,4.987v5.132a28.156,28.156,0,0,0-6.185,3.684ZM246.377,68.7A18.081,18.081,0,1,1,228.3,86.777,18.1,18.1,0,0,1,246.377,68.7Z" transform="translate(-146.597 -11.712)" fill="#942121"/>
    <path id="Path_24" data-name="Path 24" d="M90.409,203.849v-4.081a22.143,22.143,0,0,0,4.914-2.925l3.611,2.079a3.886,3.886,0,0,0,1.977.538,4.031,4.031,0,0,0,1.011-.135,3.977,3.977,0,0,0,2.4-1.843l4.82-8.325a3.954,3.954,0,0,0-1.456-5.4l-3.625-2.1a24.04,24.04,0,0,0,.276-2.819,24.083,24.083,0,0,0-.276-2.826l3.625-2.091a3.959,3.959,0,0,0,1.456-5.408l-4.82-8.32a3.934,3.934,0,0,0-3.422-1.976,3.859,3.859,0,0,0-1.967.53l-3.611,2.084a22.532,22.532,0,0,0-4.914-2.929v-4.069a3.956,3.956,0,0,0-3.956-3.959H76.847a3.953,3.953,0,0,0-3.956,3.959V157.9a22.329,22.329,0,0,0-4.907,2.929l-3.615-2.088a3.892,3.892,0,0,0-1.964-.526,4.024,4.024,0,0,0-1.036.135,3.966,3.966,0,0,0-2.4,1.835l-4.81,8.326a3.974,3.974,0,0,0,1.45,5.408l3.63,2.091a24.279,24.279,0,0,0-.277,2.826,24.18,24.18,0,0,0,.277,2.816l-3.63,2.094a3.971,3.971,0,0,0-1.45,5.406l4.809,8.325a4.022,4.022,0,0,0,2.4,1.843,4.147,4.147,0,0,0,1.021.135,3.9,3.9,0,0,0,1.979-.538l3.606-2.079a22.308,22.308,0,0,0,4.916,2.925v4.081a3.953,3.953,0,0,0,3.956,3.953h9.607A3.955,3.955,0,0,0,90.409,203.849ZM70.739,178.84a10.913,10.913,0,1,1,10.9,10.9A10.91,10.91,0,0,1,70.739,178.84Z" transform="translate(-37.249 -80.876)" fill="#942121"/>
  </g>
</svg>
