<?xml version="1.0" encoding="utf-8"?>
<!-- Generator: Adobe Illustrator 16.0.0, SVG Export Plug-In . SVG Version: 6.00 Build 0)  -->
<!DOCTYPE svg PUBLIC "-//W3C//DTD SVG 1.1//EN" "http://www.w3.org/Graphics/SVG/1.1/DTD/svg11.dtd">
<svg version="1.1" id="Capa_1" xmlns="http://www.w3.org/2000/svg" xmlns:xlink="http://www.w3.org/1999/xlink" x="0px" y="0px"
	 width="1747.912px" height="646.913px" viewBox="0 0 1747.912 646.913" enable-background="new 0 0 1747.912 646.913"
	 xml:space="preserve">
<g>
	
		<rect x="207.83" y="321.437" transform="matrix(0.7223 0.6915 -0.6915 0.7223 334.8298 -115.0231)" fill="#2E3192" width="205.65" height="76.042"/>
	
		<rect x="228.174" y="171.545" transform="matrix(0.837 -0.5472 0.5472 0.837 -56.0349 213.8882)" fill="#2E3192" width="205.65" height="58.909"/>
	<path fill="#2E3192" d="M499.02,484.654l-68.511,35.223c-0.505,0.271-1.066,0.395-1.616,0.395c-0.563,0-1.124-0.123-1.629-0.395
		L366.74,488.76c-0.084,0.006-0.158,0.045-0.252,0.045c-0.568,0.33-1.939,2.758-1.939,6.74s1.371,6.404,1.605,6.668
		c0.045,0,0.094,0.029,0.133,0.029c0.215,0.008,0.433,0.07,0.644,0.131c0.252,0.055,0.505,0.1,0.728,0.197
		c0.04,0.023,0.084,0.018,0.112,0.037l61.116,31.424l71.636-36.82c-1.205-2.141-1.92-5.078-1.92-8.424
		C498.603,487.314,498.768,485.938,499.02,484.654"/>
	<path fill="#2E3192" d="M499.02,463.354l-68.511,35.238c-0.505,0.266-1.066,0.395-1.616,0.395c-0.563,0-1.124-0.129-1.629-0.395
		l-60.523-31.123c-0.084,0.002-0.158,0.047-0.252,0.047c-0.568,0.338-1.939,2.754-1.939,6.734c0,3.988,1.371,6.408,1.605,6.672
		c0.039,0,0.081,0.021,0.123,0.029c0.229,0.008,0.445,0.078,0.674,0.131c0.243,0.063,0.484,0.1,0.707,0.201
		c0.04,0.02,0.084,0.008,0.112,0.035l61.116,31.422l71.636-36.83c-1.205-2.135-1.92-5.074-1.92-8.424
		C498.603,466.014,498.768,464.643,499.02,463.354"/>
	<path fill="#2E3192" d="M437.582,355.205c-68.84,0-124.647,55.807-124.647,124.646c0,68.842,55.808,124.648,124.647,124.648
		c68.841,0,124.647-55.807,124.647-124.648C562.229,411.012,506.423,355.205,437.582,355.205 M493.871,549.541l-6.809,11.785
		c-4.165,7.209-13.475,9.705-20.693,5.549l-0.932-0.541c-7.206-4.168-9.703-13.477-5.541-20.691l6.804-11.785
		c3.497-6.059,10.635-8.732,17.104-6.973c-0.525,0.473-1.01,1.047-1.397,1.707l-5.103,8.842c-1.439,2.482-1.181,5.4,0.463,6.93
		c-0.024,0.021-0.055,0.047-0.075,0.072l1.509,0.867c0.018-0.035,0.018-0.064,0.036-0.096c2.148,0.656,4.784-0.578,6.214-3.068
		l5.106-8.842c0.399-0.666,0.658-1.363,0.808-2.057C496.126,535.965,497.369,543.477,493.871,549.541 M486.299,531.297
		c1.121,0.648,0.977,2.992-0.318,5.244c-1.295,2.25-3.258,3.553-4.379,2.906c-1.126-0.648-0.982-2.996,0.316-5.248
		C483.216,531.951,485.175,530.648,486.299,531.297 M503.891,474.484c1.38-0.102,2.747,0.611,3.423,1.92
		c0.898,1.738,0.211,3.881-1.538,4.779l-2.221,1.135c-0.778,1.486-1.4,3.67-1.4,6.463c0,3.172,0.803,5.559,1.736,6.986
		c1.38-0.098,2.741,0.613,3.42,1.926c0.898,1.74,0.208,3.879-1.535,4.779l-26.268,13.504c0.42,1.273,1.929,2.309,4.414,3.744
		c3.291,1.902,7.811,4.508,4.682,9.926l-2.04-1.178c1.764-3.07,0.276-4.346-3.819-6.711c-1.989-1.139-4.399-2.563-5.328-4.703
		l-46.913,24.121c-0.505,0.264-1.066,0.402-1.616,0.402c-0.563,0-1.124-0.139-1.629-0.402l-62.293-32.035
		c-4.406-0.842-7.514-6.262-7.514-13.59c0-4.459,1.176-8.191,3.061-10.65c-1.885-2.457-3.061-6.189-3.061-10.646
		c0-6.275,2.287-11.152,5.711-12.961c0.33-0.52,0.793-0.971,1.367-1.262l75.274-38.709c1.013-0.533,2.23-0.533,3.246,0l62.726,32.26
		c1.192,0.6,1.932,1.82,1.932,3.154c0,1.326-0.739,2.549-1.932,3.152l-2.218,1.145c-0.781,1.486-1.403,3.676-1.403,6.455
		C502.154,470.674,502.959,473.055,503.891,474.484"/>
	<polygon fill="#2E3192" points="473.122,456.736 441.424,440.434 397.188,463.18 428.887,479.482 	"/>
	<path fill="#2E3192" d="M327.573,275.074c0,57.257-46.415,103.673-103.672,103.673s-103.673-46.416-103.673-103.673
		s46.416-103.672,103.673-103.672S327.573,217.817,327.573,275.074"/>
	<path fill="#2E3192" d="M537.713,132.62c0,55.301-44.83,100.131-100.131,100.131s-100.131-44.83-100.131-100.131
		s44.83-100.13,100.131-100.13S537.713,77.319,537.713,132.62"/>
	<polygon fill="#2E3192" points="238.105,215.5 435.109,121.672 290.117,284.744 	"/>
	<polygon fill="#2E3192" points="423.787,187.789 226.783,281.615 371.775,118.545 	"/>
	<polygon fill="#2E3192" points="303.29,263.123 366.029,419.043 212.46,350.75 	"/>
</g>
<text transform="matrix(1 0 0 1 647.958 400)" fill="#2E3192" font-family="'Roboto-Black'" font-size="253.1508">PuntoAR</text>
</svg>
