<?xml version="1.0" encoding="utf-8"?>
<!-- Generator: Adobe Illustrator 16.0.0, SVG Export Plug-In . SVG Version: 6.00 Build 0)  -->
<!DOCTYPE svg PUBLIC "-//W3C//DTD SVG 1.1//EN" "http://www.w3.org/Graphics/SVG/1.1/DTD/svg11.dtd">
<svg version="1.1" id="Capa_1" xmlns="http://www.w3.org/2000/svg" xmlns:xlink="http://www.w3.org/1999/xlink" x="0px" y="0px"
	 width="1747.912px" height="646.913px" viewBox="0 0 1747.912 646.913" enable-background="new 0 0 1747.912 646.913"
	 xml:space="preserve">
<g>
	
		<rect x="207.83" y="321.437" transform="matrix(0.7223 0.6915 -0.6915 0.7223 334.8298 -115.0231)" fill="#2E3192" width="205.65" height="76.042"/>
	
		<rect x="228.174" y="171.545" transform="matrix(0.837 -0.5472 0.5472 0.837 -56.0349 213.8882)" fill="#2E3192" width="205.65" height="58.909"/>
	<path fill="#2E3192" d="M499.02,484.654l-68.511,35.223c-0.505,0.271-1.066,0.395-1.616,0.395c-0.563,0-1.124-0.123-1.629-0.395
		L366.74,488.76c-0.084,0.006-0.158,0.045-0.252,0.045c-0.568,0.33-1.939,2.758-1.939,6.74s1.371,6.404,1.605,6.668
		c0.045,0,0.094,0.029,0.133,0.029c0.215,0.008,0.433,0.07,0.644,0.131c0.252,0.055,0.505,0.1,0.728,0.197
		c0.04,0.023,0.084,0.018,0.112,0.037l61.116,31.424l71.636-36.82c-1.205-2.141-1.92-5.078-1.92-8.424
		C498.603,487.314,498.768,485.938,499.02,484.654"/>
	<path fill="#2E3192" d="M499.02,463.354l-68.511,35.238c-0.505,0.266-1.066,0.395-1.616,0.395c-0.563,0-1.124-0.129-1.629-0.395
		l-60.523-31.123c-0.084,0.002-0.158,0.047-0.252,0.047c-0.568,0.338-1.939,2.754-1.939,6.734c0,3.988,1.371,6.408,1.605,6.672
		c0.039,0,0.081,0.021,0.123,0.029c0.229,0.008,0.445,0.078,0.674,0.131c0.243,0.063,0.484,0.1,0.707,0.201
		c0.04,0.02,0.084,0.008,0.112,0.035l61.116,31.422l71.636-36.83c-1.205-2.135-1.92-5.074-1.92-8.424
		C498.603,466.014,498.768,464.643,499.02,463.354"/>
	<path fill="#2E3192" d="M437.582,355.205c-68.84,0-124.647,55.807-124.647,124.646c0,68.842,55.808,124.648,124.647,124.648
		c68.841,0,124.647-55.807,124.647-124.648C562.229,411.012,506.423,355.205,437.582,355.205 M493.871,549.541l-6.809,11.785
		c-4.165,7.209-13.475,9.705-20.693,5.549l-0.932-0.541c-7.206-4.168-9.703-13.477-5.541-20.691l6.804-11.785
		c3.497-6.059,10.635-8.732,17.104-6.973c-0.525,0.473-1.01,1.047-1.397,1.707l-5.103,8.842c-1.439,2.482-1.181,5.4,0.463,6.93
		c-0.024,0.021-0.055,0.047-0.075,0.072l1.509,0.867c0.018-0.035,0.018-0.064,0.036-0.096c2.148,0.656,4.784-0.578,6.214-3.068
		l5.106-8.842c0.399-0.666,0.658-1.363,0.808-2.057C496.126,535.965,497.369,543.477,493.871,549.541 M486.299,531.297
		c1.121,0.648,0.977,2.992-0.318,5.244c-1.295,2.25-3.258,3.553-4.379,2.906c-1.126-0.648-0.982-2.996,0.316-5.248
		C483.216,531.951,485.175,530.648,486.299,531.297 M503.891,474.484c1.38-0.102,2.747,0.611,3.423,1.92
		c0.898,1.738,0.211,3.881-1.538,4.779l-2.221,1.135c-0.778,1.486-1.4,3.67-1.4,6.463c0,3.172,0.803,5.559,1.736,6.986
		c1.38-0.098,2.741,0.613,3.42,1.926c0.898,1.74,0.208,3.879-1.535,4.779l-26.268,13.504c0.42,1.273,1.929,2.309,4.414,3.744
		c3.291,1.902,7.811,4.508,4.682,9.926l-2.04-1.178c1.764-3.07,0.276-4.346-3.819-6.711c-1.989-1.139-4.399-2.563-5.328-4.703
		l-46.913,24.121c-0.505,0.264-1.066,0.402-1.616,0.402c-0.563,0-1.124-0.139-1.629-0.402l-62.293-32.035
		c-4.406-0.842-7.514-6.262-7.514-13.59c0-4.459,1.176-8.191,3.061-10.65c-1.885-2.457-3.061-6.189-3.061-10.646
		c0-6.275,2.287-11.152,5.711-12.961c0.33-0.52,0.793-0.971,1.367-1.262l75.274-38.709c1.013-0.533,2.23-0.533,3.246,0l62.726,32.26
		c1.192,0.6,1.932,1.82,1.932,3.154c0,1.326-0.739,2.549-1.932,3.152l-2.218,1.145c-0.781,1.486-1.403,3.676-1.403,6.455
		C502.154,470.674,502.959,473.055,503.891,474.484"/>
	<polygon fill="#2E3192" points="473.122,456.736 441.424,440.434 397.188,463.18 428.887,479.482 	"/>
	<path fill="#2E3192" d="M327.573,275.074c0,57.257-46.415,103.673-103.672,103.673s-103.673-46.416-103.673-103.673
		s46.416-103.672,103.673-103.672S327.573,217.817,327.573,275.074"/>
	<path fill="#2E3192" d="M537.713,132.62c0,55.301-44.83,100.131-100.131,100.131s-100.131-44.83-100.131-100.131
		s44.83-100.13,100.131-100.13S537.713,77.319,537.713,132.62"/>
	<polygon fill="#2E3192" points="238.105,215.5 435.109,121.672 290.117,284.744 	"/>
	<polygon fill="#2E3192" points="423.787,187.789 226.783,281.615 371.775,118.545 	"/>
	<polygon fill="#2E3192" points="303.29,263.123 366.029,419.043 212.46,350.75 	"/>
</g>
<g>
	<path fill="#2E3192" d="M704.941,338.938V400h-43.387V220.025h71.817c13.761,0,25.937,2.534,36.526,7.603
		c10.588,5.067,18.788,12.279,24.598,21.631c5.81,9.354,8.715,19.963,8.715,31.829c0,17.553-6.285,31.582-18.851,42.089
		c-12.567,10.507-29.811,15.761-51.73,15.761H704.941z M704.941,305.439h28.431c8.405,0,14.812-2.102,19.221-6.305
		c4.407-4.202,6.613-10.136,6.613-17.799c0-8.405-2.268-15.121-6.799-20.148c-4.533-5.025-10.713-7.581-18.541-7.664h-28.925
		V305.439z"/>
	<path fill="#2E3192" d="M904.075,385.538c-8.818,11.291-20.726,16.935-35.723,16.935c-14.669,0-25.772-4.265-33.313-12.794
		s-11.311-20.785-11.311-36.773v-86.65h41.656v86.897c0,11.455,5.563,17.182,16.688,17.182c9.559,0,16.356-3.419,20.396-10.26
		v-93.819h41.903V400h-39.061L904.075,385.538z"/>
	<path fill="#2E3192" d="M1005.435,266.255l1.36,15.699c9.228-12.114,21.96-18.171,38.195-18.171
		c13.925,0,24.329,4.162,31.211,12.484c6.88,8.324,10.444,20.85,10.692,37.577V400h-41.78v-84.425
		c0-6.756-1.359-11.722-4.079-14.895c-2.719-3.172-7.664-4.759-14.833-4.759c-8.158,0-14.215,3.213-18.17,9.641V400h-41.656V266.255
		H1005.435z"/>
	<path fill="#2E3192" d="M1158.462,233.005v33.25h22.003v28.925h-22.003v61.187c0,5.027,0.906,8.529,2.72,10.507
		c1.812,1.978,5.396,2.967,10.754,2.967c4.119,0,7.581-0.248,10.383-0.742v29.79c-7.499,2.389-15.327,3.585-23.485,3.585
		c-14.339,0-24.929-3.379-31.768-10.137c-6.841-6.756-10.26-17.016-10.26-30.778V295.18h-17.058v-28.925h17.058v-33.25H1158.462z"/>
	<path fill="#2E3192" d="M1187.881,331.892c0-13.35,2.596-25.235,7.787-35.661c5.191-10.424,12.648-18.438,22.373-24.042
		c9.723-5.603,21.138-8.405,34.24-8.405c20.024,0,35.804,6.201,47.342,18.604c11.536,12.403,17.306,29.275,17.306,50.617v1.483
		c0,20.85-5.791,37.392-17.367,49.629c-11.579,12.237-27.256,18.356-47.033,18.356c-19.036,0-34.323-5.706-45.859-17.12
		c-11.538-11.413-17.759-26.885-18.665-46.415L1187.881,331.892z M1229.537,334.487c0,12.361,1.936,21.427,5.81,27.194
		c3.872,5.769,9.599,8.652,17.182,8.652c14.833,0,22.414-11.413,22.744-34.239v-4.203c0-23.98-7.664-35.97-22.991-35.97
		c-13.928,0-21.468,10.342-22.621,31.025L1229.537,334.487z"/>
	<path fill="#2E3192" d="M1439.425,366.378h-59.456L1369.586,400h-46.354l66.008-179.975h40.79L1496.532,400h-46.601
		L1439.425,366.378z M1390.353,332.881h38.689l-19.407-62.423L1390.353,332.881z"/>
	<path fill="#2E3192" d="M1576.508,336.342h-23.486V400h-43.387V220.025h70.828c21.342,0,38.029,4.734,50.062,14.2
		c12.03,9.467,18.047,22.844,18.047,40.13c0,12.514-2.534,22.885-7.602,31.116c-5.068,8.232-13.001,14.901-23.795,20.004
		l37.577,72.668V400h-46.478L1576.508,336.342z M1553.021,302.967h27.441c8.239,0,14.441-2.167,18.604-6.505
		c4.16-4.338,6.242-10.389,6.242-18.154c0-7.765-2.102-13.858-6.305-18.277c-4.202-4.419-10.383-6.63-18.541-6.63h-27.441V302.967z"
		/>
</g>
</svg>
