<?xml version="1.0" encoding="utf-8"?>
<!-- Generator: Adobe Illustrator 16.0.0, SVG Export Plug-In . SVG Version: 6.00 Build 0)  -->
<!DOCTYPE svg PUBLIC "-//W3C//DTD SVG 1.1//EN" "http://www.w3.org/Graphics/SVG/1.1/DTD/svg11.dtd">
<svg version="1.1" id="Capa_1" xmlns="http://www.w3.org/2000/svg" xmlns:xlink="http://www.w3.org/1999/xlink" x="0px" y="0px"
	 width="560px" height="581px" viewBox="0 0 560 581" enable-background="new 0 0 560 581" xml:space="preserve">
<path fill="#0071BC" d="M369.5,297c-28.423,0-54.735,9.023-76.24,24.355l-29.627-2.606L216,286.916l-3.477-9.862
	c1.09-5.55,1.673-11.282,1.673-17.152c0-5.822-0.569-11.51-1.644-17.018l4.004-15.017l65.396-47.285l12.672-0.966
	c14.773,11.034,33.093,17.58,52.949,17.58c48.932,0,88.599-39.667,88.599-88.598S396.506,20,347.574,20
	s-88.598,39.667-88.598,88.598c0,10.105,1.696,19.814,4.813,28.862l-2.269,8.906l-63.579,45.971l-13.99,0.91
	c-15.587-13.658-36-21.943-58.354-21.943C76.667,171.304,37,210.971,37,259.902c0,48.931,39.667,88.598,88.598,88.598
	c15.028,0,29.178-3.752,41.577-10.355l14.377,2.489l45.367,30.317l13.824,30.742c-1.794,8.655-2.743,17.62-2.743,26.807
	c0,72.625,58.875,131.5,131.5,131.5S501,501.125,501,428.5S442.125,297,369.5,297z"/>
</svg>
